# xmcd CD database file
# Copyright (C) 1993-1998 Ti Kan
# 
# Track frame offsets:
#     150
#     23780
#     43355
#     61465
#     83355
#     98979
#     117552
#     136470
#     154015
#     174435
# 
# Disc length: 2557 seconds
# 
# Revision: 1
# Processed by: cddbd v1.4b41PL1 Copyright (c) Steve Scherf et al.
# Submitted via: DiscPlay 4.0.4
# 
DISCID=8109fb0a
DTITLE=Sara Arriaza - Sue os
DYEAR=1900
DGENRE=
TTITLE0=Yo te Dir 
TTITLE1=Noche de Verano
TTITLE2=Para Ti
TTITLE3=Un Angel
TTITLE4=Mi Oto o
TTITLE5=Historia de Juan
TTITLE6=Hoy
TTITLE7=Un D a Contigo
TTITLE8=A Pesar de los A os
TTITLE9=Quisiera Decirte
EXTD=
EXTT0=Arreglos de Josu  M. Mart n\n
EXTT1=
EXTT2=
EXTT3=
EXTT4=
EXTT5=
EXTT6=
EXTT7=
EXTT8=
EXTT9=
PLAYORDER=
